<svg width="27" height="18" viewBox="0 0 27 18" fill="none" xmlns="http://www.w3.org/2000/svg">
    <path d="M8.14893 0.648438H11.5181V11.9688C11.5181 13.0094 11.286 13.9303 10.8218 14.7314C10.3651 15.5251 9.71745 16.139 8.87891 16.5732C8.04036 17.0075 7.09326 17.2246 6.0376 17.2246C4.30811 17.2246 2.96045 16.7866 1.99463 15.9106C1.02881 15.0272 0.545898 13.7806 0.545898 12.1709H3.9375C3.9375 12.972 4.10596 13.5635 4.44287 13.9453C4.77979 14.3271 5.31136 14.5181 6.0376 14.5181C6.68148 14.5181 7.19434 14.2972 7.57617 13.8555C7.95801 13.4137 8.14893 12.7848 8.14893 11.9688V0.648438ZM14.4043 17V0.648438H19.4355C20.873 0.648438 22.1571 0.974121 23.2876 1.62549C24.4256 2.26937 25.3128 3.19027 25.9492 4.38818C26.5856 5.57861 26.9038 6.93376 26.9038 8.45361V9.20605C26.9038 10.7259 26.5894 12.0773 25.9604 13.2603C25.339 14.4432 24.4593 15.3604 23.3213 16.0117C22.1833 16.6631 20.8993 16.9925 19.4692 17H14.4043ZM17.7734 3.37744V14.2935H19.4019C20.7196 14.2935 21.7266 13.863 22.4229 13.002C23.1191 12.141 23.4748 10.9093 23.4897 9.30713V8.44238C23.4897 6.78027 23.1453 5.52246 22.4565 4.66895C21.7677 3.80794 20.7607 3.37744 19.4355 3.37744H17.7734Z" fill="white"/>
</svg>
